# Blender v2.77 (sub 0) OBJ File: 'TessellatedCube.blend'
# www.blender.org
o Cube.005
v 1.000000 -1.000000 0.000000
v -1.000000 -1.000000 0.000000
v 0.000000 -1.000000 -1.000000
v 0.000000 -1.000000 0.000000
v 0.000000 -1.000000 1.000000
v -1.000000 -1.000000 1.000000
v 1.000000 -1.000000 -1.000000
v -1.000000 -1.000000 -1.000000
v 1.000000 -1.000000 1.000000
vt 0.9999 0.5000
vt 0.5000 0.9999
vt 0.5000 0.5000
vt 0.0001 0.9999
vt 0.0001 0.5000
vt 0.5000 0.0001
vt 0.0001 0.0001
vt 0.9999 0.0001
vt 0.9999 0.9999
vn 0.0000 -1.0000 0.0000
s 1
f 2/1/1 3/2/1 4/3/1
f 4/3/1 7/4/1 1/5/1
f 5/6/1 1/5/1 9/7/1
f 6/8/1 4/3/1 5/6/1
f 2/1/1 8/9/1 3/2/1
f 4/3/1 3/2/1 7/4/1
f 5/6/1 4/3/1 1/5/1
f 6/8/1 2/1/1 4/3/1
o Cube.004
v 1.000000 -1.000000 0.000000
v 1.000000 -0.000000 -1.000000
v 1.000000 0.000000 0.000000
v 1.000000 1.000000 -0.000000
v 1.000000 0.000000 1.000000
v 1.000000 1.000000 1.000000
v 1.000000 1.000000 -1.000000
v 1.000000 -1.000000 -1.000000
v 1.000000 -1.000000 1.000000
vt 0.5000 0.9999
vt 0.0001 0.5000
vt 0.5000 0.5000
vt 0.0001 0.0001
vt 0.5000 0.0001
vt 0.9999 0.5000
vt 0.9999 0.0001
vt 0.9999 0.9999
vt 0.0001 0.9999
vn 1.0000 -0.0000 0.0000
s 1
f 10/10/2 11/11/2 12/12/2
f 12/12/2 16/13/2 13/14/2
f 14/15/2 13/14/2 15/16/2
f 18/17/2 12/12/2 14/15/2
f 10/10/2 17/18/2 11/11/2
f 12/12/2 11/11/2 16/13/2
f 14/15/2 12/12/2 13/14/2
f 18/17/2 10/10/2 12/12/2
o Cube.003
v 1.000000 -0.000000 -1.000000
v 0.000000 -1.000000 -1.000000
v -1.000000 -0.000000 -1.000000
v 0.000000 1.000000 -1.000000
v 0.000000 -0.000000 -1.000000
v -1.000000 1.000000 -1.000000
v 1.000000 1.000000 -1.000000
v 1.000000 -1.000000 -1.000000
v -1.000000 -1.000000 -1.000000
vt 0.5000 0.9999
vt 0.0001 0.5000
vt 0.5000 0.5000
vt 0.0001 0.0001
vt 0.5000 0.0001
vt 0.9999 0.5000
vt 0.9999 0.0001
vt 0.9999 0.9999
vt 0.0001 0.9999
vn 0.0000 -0.0000 -1.0000
s 1
f 20/19/3 21/20/3 23/21/3
f 23/21/3 24/22/3 22/23/3
f 19/24/3 22/23/3 25/25/3
f 26/26/3 23/21/3 19/24/3
f 20/19/3 27/27/3 21/20/3
f 23/21/3 21/20/3 24/22/3
f 19/24/3 23/21/3 22/23/3
f 26/26/3 20/19/3 23/21/3
o Cube.002
v -1.000000 -1.000000 0.000000
v -1.000000 1.000000 -0.000000
v -1.000000 -0.000000 -1.000000
v -1.000000 0.000000 0.000000
v -1.000000 0.000000 1.000000
v -1.000000 1.000000 1.000000
v -1.000000 -1.000000 1.000000
v -1.000000 1.000000 -1.000000
v -1.000000 -1.000000 -1.000000
vt 0.5000 0.0001
vt 0.9999 0.5000
vt 0.5000 0.5000
vt 0.9999 0.9999
vt 0.5000 0.9999
vt 0.0001 0.5000
vt 0.0001 0.9999
vt 0.0001 0.0001
vt 0.9999 0.0001
vn -1.0000 -0.0000 0.0000
s 1
f 29/28/4 30/29/4 31/30/4
f 31/30/4 36/31/4 28/32/4
f 32/33/4 28/32/4 34/34/4
f 33/35/4 31/30/4 32/33/4
f 29/28/4 35/36/4 30/29/4
f 31/30/4 30/29/4 36/31/4
f 32/33/4 31/30/4 28/32/4
f 33/35/4 29/28/4 31/30/4
o Cube.001
v 0.000000 -1.000000 1.000000
v 1.000000 0.000000 1.000000
v 0.000000 0.000000 1.000000
v 1.000000 1.000000 1.000000
v 0.000000 1.000000 1.000000
v -1.000000 0.000000 1.000000
v -1.000000 1.000000 1.000000
v -1.000000 -1.000000 1.000000
v 1.000000 -1.000000 1.000000
vt 0.5000 0.9999
vt 0.0001 0.5000
vt 0.5000 0.5000
vt 0.0001 0.0001
vt 0.5000 0.0001
vt 0.9999 0.5000
vt 0.9999 0.0001
vt 0.9999 0.9999
vt 0.0001 0.9999
vn 0.0000 0.0000 1.0000
s 1
f 37/37/5 38/38/5 39/39/5
f 39/39/5 40/40/5 41/41/5
f 42/42/5 41/41/5 43/43/5
f 44/44/5 39/39/5 42/42/5
f 37/37/5 45/45/5 38/38/5
f 39/39/5 38/38/5 40/40/5
f 42/42/5 39/39/5 41/41/5
f 44/44/5 37/37/5 39/39/5
o Cube
v -1.000000 1.000000 -0.000000
v 1.000000 1.000000 -0.000000
v 0.000000 1.000000 -1.000000
v 0.000000 1.000000 -0.000000
v 1.000000 1.000000 1.000000
v 0.000000 1.000000 1.000000
v -1.000000 1.000000 1.000000
v -1.000000 1.000000 -1.000000
v 1.000000 1.000000 -1.000000
vt 0.0001 0.5000
vt 0.5000 0.0001
vt 0.5000 0.5000
vt 0.9999 0.0001
vt 0.9999 0.5000
vt 0.5000 0.9999
vt 0.9999 0.9999
vt 0.0001 0.9999
vt 0.0001 0.0001
vn 0.0000 1.0000 -0.0000
s 1
f 47/46/6 48/47/6 49/48/6
f 49/48/6 53/49/6 46/50/6
f 51/51/6 46/50/6 52/52/6
f 50/53/6 49/48/6 51/51/6
f 47/46/6 54/54/6 48/47/6
f 49/48/6 48/47/6 53/49/6
f 51/51/6 49/48/6 46/50/6
f 50/53/6 47/46/6 49/48/6
